<?xml version="1.0" encoding="UTF-8"?>
<svg id="Layer_2" xmlns="http://www.w3.org/2000/svg" viewBox="0 0 813.58 150.91">
  <defs>
    <style>
      .cls-1 {
        letter-spacing: .06em;
      }

      .cls-1, .cls-2, .cls-3 {
        isolation: isolate;
      }

      .cls-1, .cls-3 {
        fill: #333;
        font-family: Poppins-SemiBold, Poppins;
        font-size: 47px;
        font-weight: 600;
      }

      .cls-4 {
        fill: #f63;
      }

      .cls-5 {
        fill: #208cd9;
      }

      .cls-6 {
        fill: #00b8f5;
      }

      .cls-3 {
        letter-spacing: .06em;
      }
    </style>
  </defs>
  <g id="Layer_2-2" data-name="Layer_2">
    <g id="Layer_2-2">
      <g>
        <g>
          <path class="cls-4" d="M92.09,41.55h-11.61v-.88c0-4.15,0-8.29.01-12.44,0-.52-.15-.87-.56-1.2-3.57-2.93-7.12-5.89-10.68-8.84-.21-.17-.43-.34-.69-.56-1.52,1.09-3.04,2.18-4.56,3.26-2.45,1.76-4.9,3.53-7.37,5.28-.43.31-.6.63-.6,1.16,0,10.16-.03,20.33-.05,30.49-.04,21.55-.08,43.1-.12,64.66,0,.9-.05,1.8,0,2.7.02.29.2.67.44.84,4.05,2.92,8.12,5.81,12.18,8.73.37.27.61.26.97-.02,3.72-2.82,7.46-5.62,11.17-8.45.26-.2.44-.65.44-.99.03-4.3.02-8.59.02-12.89v-.95h11.96v.79c0,6.74,0,13.49.01,20.23,0,.54-.17.86-.6,1.17-7.71,5.66-15.41,11.34-23.1,17.02-.42.31-.7.36-1.16.02-7.61-5.62-15.24-11.23-22.87-16.83-.38-.28-.54-.57-.54-1.05,0-37.76,0-75.52,0-113.28,0-.47.14-.78.5-1.07,7.46-6.06,14.92-12.13,22.36-18.22.39-.31.63-.3,1.01,0,7.64,6,15.29,11.98,22.93,17.99.25.2.5.59.5.9.03,7.34.02,14.68.02,22.03,0,.1-.02.2-.04.39h.03Z"/>
          <path class="cls-6" d="M35.05,80.49v-.03l-.14-.04-7.47-4.13v-3.48l7.47-4.21.13-.06V23.99L0,50.8l.43,48.33,34.63,26.17v-44.82h-.01ZM23.18,97.67l-12.2-7.53-.04-7.53,12.23,3.23v11.83h.01ZM16.7,66.31l-6.51-.08v-6.96l13.38-10.45.05,12.67s-6.92,4.82-6.92,4.82Z"/>
          <polygon class="cls-6" points="101.8 25.73 101.8 81.38 125.95 81.38 125.95 68.02 114.14 68.02 114.14 50.52 126.39 58.46 126.72 63.31 136.8 63.31 137.06 53.24 101.8 25.73"/>
          <polygon class="cls-6" points="102.33 93.66 113.65 93.66 113.66 102.38 125.9 95.2 125.9 80.76 136.86 80.76 137.32 102.45 102.33 127.09 102.33 93.66"/>
          <polyline class="cls-6" points="125.95 68.02 125.95 81.38 137.22 81.14 137.32 68.02 124.44 68.02 124.8 81.38 135.23 81.14"/>
          <polyline class="cls-6" points="137.28 70.98 137.29 73.31 137.32 102.45 133.67 95.22 135.75 79.58"/>
          <polyline class="cls-6" points="126.39 58.46 126.37 63.41 136.8 63.31 126.37 58.72"/>
          <polygon class="cls-5" points="35.08 80.46 35.08 80.5 35.05 80.49 34.92 80.42 35.05 80.46 35.08 80.46"/>
        </g>
        <g class="cls-2">
          <text class="cls-3" transform="translate(161.82 91.28)"><tspan x="0" y="0">Bharat </tspan></text>
          <text class="cls-3" transform="translate(362.1 91.52)"><tspan x="0" y="0">Carbon </tspan></text>
          <text class="cls-1" transform="translate(570.31 91.77)"><tspan x="0" y="0">Solutions</tspan></text>
        </g>
      </g>
    </g>
  </g>
</svg>