<?xml version="1.0" encoding="UTF-8"?>
<svg xmlns="http://www.w3.org/2000/svg" version="1.1" viewBox="0 0 813.6 150.9">
  <defs>
    <style>
      .cls-1 {
        fill: #f63;
      }

      .cls-2 {
        fill: #208cd9;
      }

      .cls-3 {
        fill: #00b8f5;
      }

      .cls-4 {
        isolation: isolate;
      }

      .cls-5 {
        fill: #333;
      }
    </style>
  </defs>
  <!-- Generator: Adobe Illustrator 28.6.0, SVG Export Plug-In . SVG Version: 1.2.0 Build 709)  -->
  <g>
    <g id="Layer_2">
      <g id="Layer_2-2">
        <g id="Layer_2-2-2" data-name="Layer_2-2">
          <g>
            <g>
              <path class="cls-1" d="M92.1,41.5h-11.6v-.9c0-4.2,0-8.3,0-12.4,0-.5-.2-.9-.6-1.2-3.6-2.9-7.1-5.9-10.7-8.8-.2-.2-.4-.3-.7-.6-1.5,1.1-3,2.2-4.6,3.3-2.5,1.8-4.9,3.5-7.4,5.3-.4.3-.6.6-.6,1.2,0,10.2,0,20.3,0,30.5,0,21.5,0,43.1-.1,64.7,0,.9,0,1.8,0,2.7,0,.3.2.7.4.8,4,2.9,8.1,5.8,12.2,8.7.4.3.6.3,1,0,3.7-2.8,7.5-5.6,11.2-8.4.3-.2.4-.7.4-1,0-4.3,0-8.6,0-12.9v-.9h12v.8c0,6.7,0,13.5,0,20.2,0,.5-.2.9-.6,1.2-7.7,5.7-15.4,11.3-23.1,17-.4.3-.7.4-1.2,0-7.6-5.6-15.2-11.2-22.9-16.8-.4-.3-.5-.6-.5-1.1V19.5c0-.5.1-.8.5-1.1,7.5-6.1,14.9-12.1,22.4-18.2.4-.3.6-.3,1,0,7.6,6,15.3,12,22.9,18,.2.2.5.6.5.9,0,7.3,0,14.7,0,22s0,.2,0,.4h0Z"/>
              <path class="cls-3" d="M35,80.5h0s-.1,0-.1,0l-7.5-4.1v-3.5l7.5-4.2h.1V24L0,50.8l.4,48.3,34.6,26.2v-44.8h0ZM23.2,97.7l-12.2-7.5v-7.5s12.2,3.2,12.2,3.2v11.8s0,0,0,0ZM16.7,66.3h-6.5v-7l13.4-10.5v12.7s-6.9,4.8-6.9,4.8Z"/>
              <polygon class="cls-3" points="101.8 25.7 101.8 81.4 125.9 81.4 125.9 68 114.1 68 114.1 50.5 126.4 58.5 126.7 63.3 136.8 63.3 137.1 53.2 101.8 25.7"/>
              <polygon class="cls-3" points="102.3 93.7 113.7 93.7 113.7 102.4 125.9 95.2 125.9 80.8 136.9 80.8 137.3 102.4 102.3 127.1 102.3 93.7"/>
              <polyline class="cls-3" points="125.9 68 125.9 81.4 137.2 81.1 137.3 68 124.4 68 124.8 81.4 135.2 81.1"/>
              <polyline class="cls-3" points="137.3 71 137.3 73.3 137.3 102.4 133.7 95.2 135.8 79.6"/>
              <polyline class="cls-3" points="126.4 58.5 126.4 63.4 136.8 63.3 126.4 58.7"/>
              <polygon class="cls-2" points="35.1 80.5 35.1 80.5 35 80.5 34.9 80.4 35 80.5 35.1 80.5"/>
            </g>
            <g class="cls-4">
              <g class="cls-4">
                <g class="cls-4">
                  <path class="cls-5" d="M188.2,77.2c1.2,1.5,1.8,3.2,1.8,5.2s-.4,3.3-1.3,4.6c-.9,1.3-2.1,2.4-3.7,3.1-1.6.8-3.6,1.1-5.8,1.1h-14.1v-32.8h13.5c2.2,0,4.1.4,5.8,1.1,1.6.7,2.8,1.7,3.7,3,.8,1.3,1.2,2.7,1.2,4.4s-.5,3.5-1.5,4.8c-1,1.3-2.4,2.2-4.1,2.7,1.8.3,3.4,1.3,4.6,2.8ZM171.6,72h6c1.6,0,2.8-.4,3.6-1.1s1.3-1.7,1.3-3-.4-2.3-1.3-3.1c-.8-.7-2.1-1.1-3.6-1.1h-6v8.2ZM182,84.8c.9-.8,1.3-1.8,1.3-3.2s-.5-2.5-1.4-3.3c-.9-.8-2.2-1.2-3.8-1.2h-6.5v8.8h6.6c1.6,0,2.8-.4,3.7-1.1Z"/>
                  <path class="cls-5" d="M218,66.2c1.5.9,2.7,2.1,3.6,3.8.9,1.7,1.3,3.7,1.3,6v15.3h-6.6v-14.4c0-2.1-.5-3.7-1.6-4.8-1-1.1-2.4-1.7-4.2-1.7s-3.3.6-4.3,1.7c-1.1,1.1-1.6,2.7-1.6,4.8v14.4h-6.6v-34.8h6.6v12c.8-1.1,2-2,3.4-2.7s3-1,4.7-1,3.7.4,5.3,1.3Z"/>
                  <path class="cls-5" d="M231.9,71.2c1-2,2.5-3.6,4.3-4.7,1.8-1.1,3.8-1.6,6-1.6s3.6.4,5.1,1.2c1.5.8,2.6,1.8,3.5,3v-3.7h6.6v26h-6.6v-3.8c-.8,1.2-2,2.2-3.5,3-1.5.8-3.2,1.2-5.1,1.2s-4.2-.6-6-1.7c-1.8-1.1-3.2-2.7-4.3-4.8-1.1-2.1-1.6-4.4-1.6-7.1s.5-5,1.6-7ZM249.9,74.1c-.6-1.1-1.5-2-2.5-2.6-1.1-.6-2.2-.9-3.4-.9s-2.3.3-3.4.9c-1,.6-1.9,1.5-2.5,2.6-.6,1.1-1,2.5-1,4.1s.3,2.9,1,4.1c.6,1.2,1.5,2.1,2.5,2.7,1,.6,2.2.9,3.4.9s2.4-.3,3.4-.9c1.1-.6,1.9-1.5,2.5-2.6.6-1.1.9-2.5.9-4.1s-.3-3-.9-4.1Z"/>
                  <path class="cls-5" d="M276.6,66c1.4-.8,2.9-1.2,4.7-1.2v6.9h-1.7c-2.1,0-3.6.5-4.7,1.5-1.1,1-1.6,2.7-1.6,5.1v13h-6.6v-26h6.6v4c.8-1.4,2-2.5,3.3-3.2Z"/>
                  <path class="cls-5" d="M288.4,71.2c1-2,2.5-3.6,4.3-4.7,1.8-1.1,3.8-1.6,6-1.6s3.6.4,5.1,1.2c1.5.8,2.6,1.8,3.5,3v-3.7h6.6v26h-6.6v-3.8c-.8,1.2-2,2.2-3.5,3-1.5.8-3.2,1.2-5.1,1.2s-4.2-.6-6-1.7c-1.8-1.1-3.2-2.7-4.3-4.8-1.1-2.1-1.6-4.4-1.6-7.1s.5-5,1.6-7ZM306.3,74.1c-.6-1.1-1.5-2-2.5-2.6-1.1-.6-2.2-.9-3.4-.9s-2.3.3-3.4.9c-1,.6-1.9,1.5-2.5,2.6-.6,1.1-1,2.5-1,4.1s.3,2.9,1,4.1c.6,1.2,1.5,2.1,2.5,2.7,1,.6,2.2.9,3.4.9s2.4-.3,3.4-.9c1.1-.6,1.9-1.5,2.5-2.6.6-1.1.9-2.5.9-4.1s-.3-3-.9-4.1Z"/>
                  <path class="cls-5" d="M330.8,70.6v12.6c0,.9.2,1.5.6,1.9.4.4,1.1.6,2.1.6h3.1v5.5h-4.1c-5.5,0-8.3-2.7-8.3-8.1v-12.5h-3.1v-5.4h3.1v-6.4h6.6v6.4h5.8v5.4h-5.8Z"/>
                </g>
              </g>
              <g class="cls-4">
                <g class="cls-4">
                  <path class="cls-5" d="M365.9,66.4c1.5-2.6,3.4-4.5,6-6,2.5-1.4,5.4-2.1,8.5-2.1s6.9.9,9.6,2.8c2.8,1.9,4.7,4.5,5.8,7.8h-7.6c-.8-1.6-1.8-2.7-3.2-3.5s-2.9-1.2-4.7-1.2-3.6.4-5.1,1.3c-1.5.9-2.6,2.2-3.5,3.8-.8,1.6-1.2,3.5-1.2,5.7s.4,4.1,1.2,5.7c.8,1.6,2,2.9,3.5,3.8,1.5.9,3.2,1.3,5.1,1.3s3.4-.4,4.7-1.2,2.4-2,3.2-3.5h7.6c-1.1,3.4-3,6-5.8,7.8-2.7,1.9-6,2.8-9.7,2.8s-6-.7-8.5-2.1c-2.5-1.4-4.5-3.4-6-5.9-1.5-2.5-2.2-5.4-2.2-8.6s.7-6.1,2.2-8.7Z"/>
                  <path class="cls-5" d="M404.1,71.4c1-2,2.5-3.6,4.3-4.7,1.8-1.1,3.8-1.6,6-1.6s3.6.4,5.1,1.2c1.5.8,2.6,1.8,3.5,3v-3.7h6.6v26h-6.6v-3.8c-.8,1.2-2,2.2-3.5,3s-3.2,1.2-5.1,1.2-4.2-.6-6-1.7c-1.8-1.1-3.2-2.7-4.3-4.8-1.1-2.1-1.6-4.4-1.6-7.1s.5-5,1.6-7ZM422.1,74.4c-.6-1.1-1.5-2-2.5-2.6-1.1-.6-2.2-.9-3.4-.9s-2.3.3-3.4.9c-1,.6-1.9,1.5-2.5,2.6-.6,1.1-1,2.5-1,4.1s.3,2.9,1,4.1c.6,1.2,1.5,2.1,2.5,2.7,1,.6,2.2.9,3.4.9s2.4-.3,3.4-.9,1.9-1.5,2.5-2.6c.6-1.1.9-2.5.9-4.1s-.3-3-.9-4.1Z"/>
                  <path class="cls-5" d="M448.8,66.3c1.4-.8,2.9-1.2,4.7-1.2v6.9h-1.7c-2.1,0-3.6.5-4.7,1.5-1.1,1-1.6,2.7-1.6,5.1v13h-6.6v-26h6.6v4c.8-1.4,2-2.5,3.3-3.2Z"/>
                  <path class="cls-5" d="M470.8,66.2c1.5-.8,3.2-1.2,5.1-1.2s4.2.5,6,1.6c1.8,1.1,3.2,2.7,4.3,4.7,1,2,1.6,4.4,1.6,7s-.5,5-1.6,7.1-2.5,3.6-4.3,4.8c-1.8,1.1-3.8,1.7-6,1.7s-3.6-.4-5.1-1.2-2.6-1.8-3.5-3v3.7h-6.6v-34.8h6.6v12.5c.8-1.3,2-2.3,3.5-3.1ZM480.1,74.3c-.6-1.1-1.5-2-2.5-2.6-1-.6-2.2-.9-3.4-.9s-2.3.3-3.4.9c-1,.6-1.9,1.5-2.5,2.7-.6,1.2-1,2.5-1,4.1s.3,2.9,1,4.1c.6,1.2,1.5,2,2.5,2.7s2.2.9,3.4.9,2.4-.3,3.4-.9,1.9-1.5,2.5-2.7c.6-1.2,1-2.5,1-4.1s-.3-2.9-1-4.1Z"/>
                  <path class="cls-5" d="M500.2,90.3c-2-1.1-3.6-2.7-4.7-4.7s-1.7-4.4-1.7-7,.6-5,1.8-7.1c1.2-2,2.8-3.6,4.8-4.7,2-1.1,4.3-1.7,6.8-1.7s4.8.6,6.8,1.7c2,1.1,3.6,2.7,4.8,4.7,1.2,2,1.8,4.4,1.8,7.1s-.6,5-1.8,7c-1.2,2-2.8,3.6-4.9,4.7-2.1,1.1-4.3,1.7-6.9,1.7s-4.8-.6-6.8-1.7ZM510.4,85.3c1-.6,1.9-1.4,2.5-2.6.6-1.2.9-2.6.9-4.2,0-2.5-.7-4.4-2-5.7-1.3-1.3-2.9-2-4.8-2s-3.5.7-4.7,2c-1.3,1.3-1.9,3.2-1.9,5.7s.6,4.4,1.9,5.7c1.2,1.3,2.8,2,4.7,2s2.3-.3,3.4-.9Z"/>
                  <path class="cls-5" d="M550.2,68c1.9,2,2.9,4.7,2.9,8.2v15.3h-6.6v-14.4c0-2.1-.5-3.7-1.6-4.8s-2.4-1.7-4.2-1.7-3.3.6-4.3,1.7c-1.1,1.1-1.6,2.7-1.6,4.8v14.4h-6.6v-26h6.6v3.2c.9-1.1,2-2,3.4-2.7,1.4-.6,2.9-1,4.5-1,3.1,0,5.6,1,7.5,2.9Z"/>
                </g>
              </g>
              <g class="cls-4">
                <g class="cls-4">
                  <path class="cls-5" d="M578.7,90.9c-1.8-.8-3.3-1.9-4.3-3.4-1.1-1.5-1.6-3.2-1.6-5.2h7c0,1.3.6,2.4,1.4,3.2.9.8,2,1.2,3.5,1.2s2.7-.4,3.6-1.1,1.3-1.7,1.3-2.9-.3-1.8-.9-2.4c-.6-.6-1.3-1.1-2.2-1.5-.9-.4-2.1-.8-3.7-1.2-2.1-.6-3.9-1.2-5.2-1.9-1.3-.6-2.5-1.5-3.4-2.8-1-1.2-1.4-2.9-1.4-5s.5-3.6,1.5-5.1c1-1.4,2.3-2.5,4.1-3.3s3.8-1.2,6-1.2c3.4,0,6.1.8,8.2,2.5,2.1,1.6,3.3,3.9,3.5,6.9h-7.2c0-1.1-.5-2.1-1.4-2.8-.9-.7-2.1-1.1-3.5-1.1s-2.3.3-3.1,1c-.8.7-1.2,1.6-1.2,2.9s.3,1.6.9,2.2c.6.6,1.3,1,2.2,1.4.9.4,2.1.8,3.6,1.2,2.1.6,3.9,1.3,5.2,1.9,1.3.6,2.5,1.6,3.5,2.8,1,1.3,1.5,2.9,1.5,4.9s-.5,3.4-1.4,4.9c-.9,1.5-2.2,2.7-4,3.6-1.8.9-3.8,1.3-6.3,1.3s-4.3-.4-6.2-1.2Z"/>
                  <path class="cls-5" d="M609.8,90.5c-2-1.1-3.6-2.7-4.7-4.7-1.1-2-1.7-4.4-1.7-7s.6-5,1.8-7.1c1.2-2,2.8-3.6,4.8-4.7,2-1.1,4.3-1.7,6.8-1.7s4.8.6,6.8,1.7c2,1.1,3.6,2.7,4.8,4.7,1.2,2,1.8,4.4,1.8,7.1s-.6,5-1.8,7-2.8,3.6-4.9,4.7c-2.1,1.1-4.3,1.7-6.9,1.7s-4.8-.6-6.8-1.7ZM619.9,85.6c1-.6,1.9-1.4,2.5-2.6.6-1.2.9-2.6.9-4.2,0-2.5-.7-4.4-2-5.7-1.3-1.3-2.9-2-4.8-2s-3.5.7-4.7,2c-1.3,1.3-1.9,3.2-1.9,5.7s.6,4.4,1.9,5.7c1.2,1.3,2.8,2,4.7,2s2.3-.3,3.4-.9Z"/>
                  <path class="cls-5" d="M644.4,57v34.8h-6.6v-34.8h6.6Z"/>
                  <path class="cls-5" d="M678.3,65.7v26h-6.6v-3.3c-.8,1.1-2,2-3.3,2.7-1.4.6-2.8,1-4.4,1s-3.8-.4-5.4-1.3c-1.6-.9-2.8-2.1-3.7-3.8-.9-1.7-1.3-3.7-1.3-6v-15.3h6.6v14.3c0,2.1.5,3.7,1.6,4.8,1,1.1,2.4,1.7,4.2,1.7s3.2-.6,4.3-1.7,1.6-2.7,1.6-4.8v-14.3h6.6Z"/>
                  <path class="cls-5" d="M695.2,71.1v12.6c0,.9.2,1.5.6,1.9s1.1.6,2.1.6h3.1v5.5h-4.1c-5.5,0-8.3-2.7-8.3-8.1v-12.5h-3.1v-5.4h3.1v-6.4h6.6v6.4h5.8v5.4h-5.8Z"/>
                  <path class="cls-5" d="M709.1,61.5c-.8-.7-1.2-1.7-1.2-2.8s.4-2,1.2-2.7,1.7-1.1,2.9-1.1,2.1.4,2.9,1.1c.8.7,1.2,1.7,1.2,2.7s-.4,2-1.2,2.8c-.8.7-1.7,1.1-2.9,1.1s-2.1-.4-2.9-1.1ZM715.2,65.7v26h-6.6v-26h6.6Z"/>
                  <path class="cls-5" d="M729.3,90.5c-2-1.1-3.6-2.7-4.7-4.7s-1.7-4.4-1.7-7,.6-5,1.8-7.1c1.2-2,2.8-3.6,4.8-4.7,2-1.1,4.3-1.7,6.8-1.7s4.8.6,6.8,1.7c2,1.1,3.6,2.7,4.8,4.7,1.2,2,1.8,4.4,1.8,7.1s-.6,5-1.8,7c-1.2,2-2.8,3.6-4.9,4.7-2.1,1.1-4.3,1.7-6.9,1.7s-4.8-.6-6.8-1.7ZM739.4,85.6c1-.6,1.9-1.4,2.5-2.6.6-1.2.9-2.6.9-4.2,0-2.5-.7-4.4-2-5.7-1.3-1.3-2.9-2-4.8-2s-3.5.7-4.7,2c-1.3,1.3-1.9,3.2-1.9,5.7s.6,4.4,1.9,5.7c1.2,1.3,2.8,2,4.7,2s2.3-.3,3.4-.9Z"/>
                  <path class="cls-5" d="M779.3,68.3c1.9,2,2.9,4.7,2.9,8.2v15.3h-6.6v-14.4c0-2.1-.5-3.7-1.6-4.8-1-1.1-2.4-1.7-4.2-1.7s-3.3.6-4.3,1.7-1.6,2.7-1.6,4.8v14.4h-6.6v-26h6.6v3.2c.9-1.1,2-2,3.4-2.7s2.9-1,4.5-1c3.1,0,5.6,1,7.5,2.9Z"/>
                  <path class="cls-5" d="M795.4,91c-1.7-.8-3-1.8-4-3.1-1-1.3-1.5-2.8-1.6-4.4h6.6c.1,1,.6,1.8,1.5,2.5.9.7,1.9,1,3.2,1s2.2-.2,2.9-.8,1.1-1.1,1.1-1.9-.4-1.5-1.3-1.9c-.9-.4-2.2-.9-4.1-1.4-1.9-.5-3.5-1-4.8-1.5-1.2-.5-2.3-1.3-3.2-2.3-.9-1-1.3-2.4-1.3-4.2s.4-2.8,1.2-3.9c.8-1.2,2-2.1,3.6-2.8s3.4-1,5.5-1c3.1,0,5.6.8,7.4,2.3s2.9,3.6,3.1,6.3h-6.3c0-1-.5-1.9-1.3-2.5-.8-.6-1.8-.9-3.1-.9s-2.1.2-2.7.7c-.6.4-1,1-1,1.8s.4,1.5,1.3,2c.9.5,2.2.9,4.1,1.4,1.9.5,3.4,1,4.7,1.5,1.2.5,2.3,1.3,3.2,2.3.9,1.1,1.4,2.4,1.4,4.2,0,1.5-.4,2.9-1.2,4-.8,1.2-2,2.1-3.6,2.8-1.6.7-3.4,1-5.4,1s-4-.4-5.7-1.2Z"/>
                </g>
              </g>
            </g>
          </g>
        </g>
      </g>
    </g>
  </g>
</svg>